<svg xmlns="http://www.w3.org/2000/svg" viewBox="0 0 148.84 21.41"><defs><style>.cls-1{fill:#373637;}.cls-2{fill:#cf2b91;}</style></defs><g id="레이어_2" data-name="레이어 2"><g id="Layer_1" data-name="Layer 1"><path class="cls-1" d="M75.76,20.7V17h.93a1.09,1.09,0,0,1,.75.24.94.94,0,0,1,.27.72v1.8a.91.91,0,0,1-.27.72,1.09,1.09,0,0,1-.75.24Zm.48-.36h.45a.54.54,0,0,0,.4-.14.48.48,0,0,0,.15-.37v-2a.5.5,0,0,0-.15-.38.59.59,0,0,0-.4-.14h-.45Z"/><path class="cls-1" d="M80.2,19.78a.93.93,0,0,1-.26.71,1,1,0,0,1-.76.25,1.06,1.06,0,0,1-.76-.25,1,1,0,0,1-.26-.71V17.9a1,1,0,0,1,.26-.71,1.1,1.1,0,0,1,.76-.25,1.09,1.09,0,0,1,.76.25.93.93,0,0,1,.26.71Zm-1.57.09a.45.45,0,0,0,.16.38.61.61,0,0,0,.78,0,.45.45,0,0,0,.16-.38V17.81a.46.46,0,0,0-.16-.38.61.61,0,0,0-.78,0,.46.46,0,0,0-.16.38Z"/><path class="cls-1" d="M82.9,20.7h-.67l-1-3.38V20.7h-.47V17h.78l.87,3.22V17h.47Z"/><path class="cls-1" d="M85.43,20.7h-.94a1.09,1.09,0,0,1-.75-.24.91.91,0,0,1-.27-.72v-1.8a.9.9,0,0,1,.29-.72,1.17,1.17,0,0,1,.78-.24h.79v.36h-.84a.56.56,0,0,0-.4.14.48.48,0,0,0-.15.37v2a.47.47,0,0,0,.15.37.48.48,0,0,0,.38.14H85V18.89h-.47v-.35h.94Z"/><path class="cls-1" d="M85.83,18.87v-.35h1.23v.35Z"/><path class="cls-1" d="M87.93,17h.71l.81,3.72H89l-.26-1.09h-1l-.23,1.09h-.46Zm.74,2.27-.38-1.92h0l-.39,1.92Z"/><path class="cls-1" d="M91.47,18.91H90.41V20.7h-.47V17h.47v1.57h1.06V17h.47V20.7h-.47Z"/><path class="cls-1" d="M93.52,20.7V17H94V20.7Z"/><path class="cls-1" d="M96.84,20.7h-.67l-1-3.38V20.7h-.47V17h.78l.87,3.22V17h.47Z"/><path class="cls-1" d="M98.53,20.17a.68.68,0,0,0,.14-.42.88.88,0,0,0-.09-.41.71.71,0,0,0-.22-.26l-.29-.22-.29-.22a.87.87,0,0,1-.22-.3,1,1,0,0,1,.17-1.11,1,1,0,0,1,.71-.25h.43v.35h-.41a.48.48,0,0,0-.39.17.53.53,0,0,0-.13.35.58.58,0,0,0,.09.33.69.69,0,0,0,.22.23l.29.21.29.25a1.11,1.11,0,0,1,.22.34,1.21,1.21,0,0,1,.08.48,1,1,0,0,1-.28.76,1.13,1.13,0,0,1-.78.25h-.56v-.35h.58A.52.52,0,0,0,98.53,20.17Z"/><path class="cls-1" d="M100.12,20.7V17.33h-.75V17h2v.35h-.74V20.7Z"/><path class="cls-1" d="M101.83,20.7V17h.47V20.7Z"/><path class="cls-1" d="M103.54,20.7V17.33h-.75V17h2v.35H104V20.7Z"/><path class="cls-1" d="M105.08,17h.47v2.89a.53.53,0,0,0,.13.39.45.45,0,0,0,.35.13.48.48,0,0,0,.35-.13.57.57,0,0,0,.12-.39V17H107v2.8a.95.95,0,1,1-1.89,0Z"/><path class="cls-1" d="M108.05,20.7V17.33h-.74V17h2v.35h-.75V20.7Z"/><path class="cls-1" d="M109.76,20.7V17h1.62v.36h-1.15v1.19h.94v.36h-.94v1.45h1.21v.36Z"/><path class="cls-1" d="M114.71,19.78a.93.93,0,0,1-.26.71,1.27,1.27,0,0,1-1.51,0,.93.93,0,0,1-.26-.71V17.9a.93.93,0,0,1,.26-.71,1.27,1.27,0,0,1,1.51,0,.93.93,0,0,1,.26.71Zm-1.56.09a.48.48,0,0,0,.15.38.6.6,0,0,0,.39.14.61.61,0,0,0,.4-.14.48.48,0,0,0,.16-.38V17.81a.5.5,0,0,0-.16-.38.61.61,0,0,0-.4-.14.6.6,0,0,0-.39.14.49.49,0,0,0-.15.38Z"/><path class="cls-1" d="M115.33,20.7V17h1.57v.36h-1.1v1.28h.83V19h-.83V20.7Z"/><path class="cls-1" d="M118.61,20.7h-.47V17h.71l.71,2.2h0l.73-2.2H121V20.7h-.47V17.54l-.71,2.17h-.51l-.71-2.18Z"/><path class="cls-1" d="M121.73,20.7V17h1.63v.36H122.2v1.19h.94v.36h-.94v1.45h1.21v.36Z"/><path class="cls-1" d="M124,20.7V17h.92a1.09,1.09,0,0,1,.75.24.94.94,0,0,1,.27.72v1.8a.91.91,0,0,1-.27.72,1.09,1.09,0,0,1-.75.24Zm.47-.36h.45a.54.54,0,0,0,.4-.14.48.48,0,0,0,.15-.37v-2a.5.5,0,0,0-.15-.38.59.59,0,0,0-.4-.14h-.45Z"/><path class="cls-1" d="M126.57,20.7V17H127V20.7Z"/><path class="cls-1" d="M128.37,17h.71l.81,3.72h-.44l-.26-1.09h-1L128,20.7h-.45Zm.74,2.27-.38-1.92h0l-.39,1.92Z"/><path class="cls-1" d="M131.74,17h.7l.81,3.72h-.43l-.26-1.09h-1l-.24,1.09h-.45Zm.74,2.27-.39-1.92h0l-.39,1.92Z"/><path class="cls-1" d="M135.83,20.7h-.67l-1-3.38V20.7h-.46V17h.78l.87,3.22V17h.47Z"/><path class="cls-1" d="M136.56,20.7V17h.92a1.06,1.06,0,0,1,.75.24.94.94,0,0,1,.27.72v1.8a.91.91,0,0,1-.27.72,1.06,1.06,0,0,1-.75.24Zm.47-.36h.45a.53.53,0,0,0,.4-.14.48.48,0,0,0,.15-.37v-2a.5.5,0,0,0-.15-.38.57.57,0,0,0-.4-.14H137Z"/><path class="cls-1" d="M140.47,17h.71L142,20.7h-.44l-.26-1.09h-1l-.24,1.09h-.46Zm.74,2.27-.38-1.92h0l-.38,1.92Z"/><path class="cls-1" d="M142.94,19.07V20.7h-.45V17h1a.86.86,0,0,1,1,1,1.36,1.36,0,0,1-.15.65.76.76,0,0,1-.41.38l.74,1.7h-.45l-.73-1.63Zm0-1.74v1.39h.38a.57.57,0,0,0,.47-.21A.85.85,0,0,0,144,18a.56.56,0,0,0-.64-.64Z"/><path class="cls-1" d="M145.57,20.7V17.33h-.74V17h2v.35H146V20.7Z"/><path class="cls-1" d="M148.24,20.17a.68.68,0,0,0,.13-.42.88.88,0,0,0-.09-.41.71.71,0,0,0-.22-.26l-.28-.22-.29-.22a.87.87,0,0,1-.22-.3,1.06,1.06,0,0,1,.16-1.11,1,1,0,0,1,.71-.25h.43v.35h-.41a.45.45,0,0,0-.38.17.54.54,0,0,0-.14.35.58.58,0,0,0,.09.33.8.8,0,0,0,.22.23l.29.21a3.74,3.74,0,0,1,.29.25,1,1,0,0,1,.22.34,1.21,1.21,0,0,1,.09.48,1,1,0,0,1-.29.76,1.1,1.1,0,0,1-.77.25h-.56v-.35h.58A.53.53,0,0,0,148.24,20.17Z"/><path class="cls-1" d="M80.17,9.36V8.54H82.4v-1H77.83V6.42h4.54v-1H77.51a.7.7,0,0,0-.56.22.85.85,0,0,0-.18.57V7.74a.8.8,0,0,0,.21.59.84.84,0,0,0,.61.21H79.1v.81H75.8v1h2.78a3.11,3.11,0,0,0-.43.31,1.92,1.92,0,0,0-.63,1.44,1.8,1.8,0,0,0,.64,1.38,2.12,2.12,0,0,0,1.49.58,2.14,2.14,0,0,0,1.47-.57,1.81,1.81,0,0,0,.66-1.39,1.88,1.88,0,0,0-.66-1.44,3.11,3.11,0,0,0-.43-.31h2.78v-1Zm.23,3.4a1.17,1.17,0,0,1-1.54,0,.9.9,0,0,1-.32-.69.92.92,0,0,1,.3-.7,1.12,1.12,0,0,1,.78-.29,1.16,1.16,0,0,1,.78.29.92.92,0,0,1,.32.7A.9.9,0,0,1,80.4,12.76Z"/><path class="cls-1" d="M86,5.88a2.3,2.3,0,0,0-1.66.68,2.26,2.26,0,0,0-.71,1.67,2.21,2.21,0,0,0,.72,1.65,2.34,2.34,0,0,0,1.66.68,2.28,2.28,0,0,0,1.64-.68,2.18,2.18,0,0,0,.73-1.65,2.23,2.23,0,0,0-.72-1.67A2.32,2.32,0,0,0,86,5.88ZM87,9.12A1.33,1.33,0,0,1,86,9.5a1.29,1.29,0,0,1-.92-.38,1.2,1.2,0,0,1-.39-.9A1.3,1.3,0,0,1,86,6.93a1.29,1.29,0,0,1,.92.38,1.24,1.24,0,0,1,.4.91A1.27,1.27,0,0,1,87,9.12Z"/><path class="cls-1" d="M90.23,7.64a.35.35,0,0,1,0-.07V5.37H89.13v8.52h1.09V8.73a.22.22,0,0,1,0-.09h1.36v-1H90.23Z"/><path class="cls-1" d="M98,10.66a2.11,2.11,0,0,0-1.48-.57,2.15,2.15,0,0,0-1.48.57,1.92,1.92,0,0,0-.63,1.44A1.8,1.8,0,0,0,95,13.48a2.12,2.12,0,0,0,1.49.58A2.14,2.14,0,0,0,98,13.49a1.81,1.81,0,0,0,.66-1.39A1.89,1.89,0,0,0,98,10.66Zm-.71,2.1a1.17,1.17,0,0,1-1.54,0,.9.9,0,0,1-.32-.69.92.92,0,0,1,.3-.7,1.12,1.12,0,0,1,.78-.29,1.16,1.16,0,0,1,.78.29.92.92,0,0,1,.32.7A.9.9,0,0,1,97.24,12.76Z"/><path class="cls-1" d="M98.66,7a.35.35,0,0,1,0-.07V5.37H97.58V10h1.07V8.12s0-.07,0-.09h1.28V7H98.66Z"/><path class="cls-1" d="M96.33,9.47a.93.93,0,0,0,.17-.58V5.58h-1V6.65a.22.22,0,0,1,0,.06H93.51V5.58H92.45V8.93a.85.85,0,0,0,.19.57.7.7,0,0,0,.57.24h2.57A.63.63,0,0,0,96.33,9.47Zm-.87-.81a.12.12,0,0,1,0,.07H93.52a.22.22,0,0,1,0-.06V7.72h1.94a.35.35,0,0,1,0,.07Z"/><path class="cls-1" d="M104.56,9.34h0V8H103.5V9.33h-3.31v1H103a2.31,2.31,0,0,0-.45.32,1.92,1.92,0,0,0-.63,1.44,1.8,1.8,0,0,0,.64,1.38,2.12,2.12,0,0,0,1.49.58,2.14,2.14,0,0,0,1.47-.57,1.81,1.81,0,0,0,.66-1.39,1.88,1.88,0,0,0-.66-1.44,2.31,2.31,0,0,0-.45-.32h2.79v-1h-3.31Zm.25,3.42a1.17,1.17,0,0,1-1.54,0,.9.9,0,0,1-.32-.69.92.92,0,0,1,.3-.7,1.12,1.12,0,0,1,.78-.29,1.16,1.16,0,0,1,.78.29.92.92,0,0,1,.32.7A.9.9,0,0,1,104.81,12.76Z"/><path class="cls-1" d="M137.29,9.59a1.81,1.81,0,0,0,.65-1.38,1.78,1.78,0,0,0-.38-1.14h.83v-1h-2.07V5.13h-1.07v.92h-2.07v1h.87a1.89,1.89,0,0,0-.36,1.14,1.79,1.79,0,0,0,.64,1.38,2.18,2.18,0,0,0,3,0ZM135,8.86a.87.87,0,0,1-.32-.69.94.94,0,0,1,.3-.7,1.12,1.12,0,0,1,.78-.29,1.18,1.18,0,0,1,.78.29,1,1,0,0,1,.32.7.94.94,0,0,1-.32.7,1.12,1.12,0,0,1-.77.29A1.08,1.08,0,0,1,135,8.86Z"/><rect class="cls-1" x="114.99" y="5.37" width="1.04" height="8.52"/><path class="cls-1" d="M116.85,9.83h3.27s0,0,0,0v.48h-2.39v.88h4.77s0,0,0,.06v.29a.2.2,0,0,1,0,.08h-4.44a.39.39,0,0,0-.42.44v1a.8.8,0,0,0,.18.54.7.7,0,0,0,.57.25h5.34V13h-5.06v-.5h4.22a.67.67,0,0,0,.69-.76v-1c0-.21-.08-.44-.48-.44h-1.93V9.83h3.34V9h-7.67Z"/><path class="cls-1" d="M131.28,7.77h-.71V5.43h-1v5.14l-1.08.08-.92,0h-1a.07.07,0,0,1,0,0V7h2.17V6h-2.49a.76.76,0,0,0-.53.18.65.65,0,0,0-.2.52v4.18a.84.84,0,0,0,.21.59.79.79,0,0,0,.62.25h1.26c.28,0,.59,0,.93,0l1.07-.09v2.33h1V8.75h.71v5.13h1V5.37h-1Z"/><path class="cls-1" d="M139.26,10.65h-4.9v1h4.46c.08,0,.1,0,.1,0s0,0,0,.09v2.1H140V11.46a.93.93,0,0,0-.17-.58A.75.75,0,0,0,139.26,10.65Z"/><path class="cls-1" d="M141.3,7.23H140s0,0,0-.06V5.37h-1.07v4.81H140V8.31a.78.78,0,0,1,0-.09h1.28Z"/><path class="cls-1" d="M146.64,6.87a.24.24,0,0,1,0,.09v3.67h1.08v-4a.71.71,0,0,0-.2-.49.62.62,0,0,0-.49-.24H142v1h4.67Z"/><path class="cls-1" d="M145.87,12h0V8.73h-1.06V12h-.91V8.73H142.8V12h-1.56v1h7.36V12Z"/><path class="cls-1" d="M113.36,6.7h-1.25L112,6.58a2.23,2.23,0,0,0-1.59-.65,2.29,2.29,0,0,0-2.28,2.26,2.1,2.1,0,0,0,.69,1.58,2.22,2.22,0,0,0,1.6.66A2.16,2.16,0,0,0,112,9.77l.06,0h1.32v4.17h1V5.43h-1ZM111.28,9a1.24,1.24,0,0,1-1.77,0,1.15,1.15,0,0,1-.37-.86,1.19,1.19,0,0,1,.36-.87,1.24,1.24,0,0,1,1.77,0,1.17,1.17,0,0,1,.38.87A1.15,1.15,0,0,1,111.28,9Zm2.08-.3h-.75a2,2,0,0,0,.07-.56,2.94,2.94,0,0,0-.05-.51h.72s0,0,0,.06Z"/><polygon class="cls-1" points="104.03 6.75 106.27 8.94 107.06 8.24 104.02 5.28 101.05 8.21 101.83 8.95 104.03 6.75"/><polygon class="cls-1" points="120.66 6.56 122.9 8.57 123.61 7.86 120.65 5.21 117.77 7.86 118.46 8.59 120.66 6.56"/><path class="cls-2" d="M16.29,8.72h4.92V21H16.29Z"/><path class="cls-2" d="M23.56,8.72h4.62V11A4.83,4.83,0,0,1,29,10a5.72,5.72,0,0,1,1.1-.84,6.32,6.32,0,0,1,1.3-.57,4.75,4.75,0,0,1,1.39-.22,4.12,4.12,0,0,1,1.1.16,4.12,4.12,0,0,1,1.93,1.27,4.77,4.77,0,0,1,.71,1.09,4.5,4.5,0,0,1,.91-1,6.16,6.16,0,0,1,1.25-.79,7,7,0,0,1,1.45-.53,6.68,6.68,0,0,1,1.53-.19,5.4,5.4,0,0,1,2.09.36,3.41,3.41,0,0,1,1.39,1,4.08,4.08,0,0,1,.77,1.56,7.91,7.91,0,0,1,.24,2V21H41.23v-7a5.79,5.79,0,0,0-.07-.76,2.82,2.82,0,0,0-.28-.8,2,2,0,0,0-.57-.65,1.59,1.59,0,0,0-.94-.26,1.55,1.55,0,0,0-.75.19,2.18,2.18,0,0,0-.62.52,2.33,2.33,0,0,0-.44.73,2.41,2.41,0,0,0-.16.84V21H32.48v-7a4.6,4.6,0,0,0-.08-.91,2.4,2.4,0,0,0-.29-.79,1.58,1.58,0,0,0-.56-.56,1.7,1.7,0,0,0-.89-.21,2.42,2.42,0,0,0-.77.14,2.8,2.8,0,0,0-.7.39,1.93,1.93,0,0,0-.51.59,1.35,1.35,0,0,0-.2.74V21H23.56Z"/><path class="cls-2" d="M21.39,3.31A2.68,2.68,0,1,1,18.71.63,2.68,2.68,0,0,1,21.39,3.31Z"/><path class="cls-1" d="M13.86,14.12V0H8.94V7.91a6.83,6.83,0,0,0-1.88-.25,6.94,6.94,0,0,0-5,2A6.52,6.52,0,0,0,0,14.5a6.57,6.57,0,0,0,2,4.86,6.72,6.72,0,0,0,4.9,2,6.73,6.73,0,0,0,4.9-2,6.6,6.6,0,0,0,2-4.87Zm-7,2.79a2.42,2.42,0,1,1,2.41-2.42A2.41,2.41,0,0,1,6.88,16.91Z"/><path class="cls-1" d="M61.37,11.1h0a6.9,6.9,0,0,0-1.11-1.4,7,7,0,0,0-9.8,0,6.6,6.6,0,0,0-2,4.86,6.54,6.54,0,0,0,2,4.87,7,7,0,0,0,5,2,6.54,6.54,0,0,0,4.8-2,6.42,6.42,0,0,0,.43-.48l1.68,2.47,4.09-2.73ZM55.31,17a2.42,2.42,0,1,1,2.41-2.42A2.41,2.41,0,0,1,55.31,17Z"/><rect class="cls-1" x="70.37" y="5.36" width="0.53" height="15.53"/></g></g></svg>