<svg xmlns="http://www.w3.org/2000/svg"  viewBox="0 0 100 100" width="100px" height="100px"><path fill="#fefdef" d="M69.882,49.921v-21.25c-4.979-4.979-7.771-7.771-12.75-12.75H35.522c-3.102,0-5.64,2.474-5.64,5.499v28.501"/><path fill="#1f212b" d="M69.882,50.921c-0.553,0-1-0.447-1-1V29.084L56.718,16.921H35.522c-2.559,0-4.64,2.019-4.64,4.499v28.501c0,0.553-0.447,1-1,1s-1-0.447-1-1V21.42c0-3.584,2.979-6.499,6.64-6.499h21.61c0.266,0,0.52,0.105,0.707,0.293l12.75,12.749c0.188,0.188,0.293,0.441,0.293,0.707v21.251C70.882,50.474,70.435,50.921,69.882,50.921z"/><path fill="#ceccbe" d="M77.137,46.921h-4.256v3.944c0,0.031-0.025,0.056-0.056,0.056H27.257c-0.207,0-0.375-0.169-0.375-0.375v-3.624h-4.256c-4.259,0-7.744,3.485-7.744,7.744v19.511c0,4.26,3.485,7.745,7.745,7.745h5.255v-4.195c0-0.443,0.362-0.805,0.805-0.805h43.02c0.646,0,1.175,0.529,1.175,1.175v3.825h4.255c4.26,0,7.745-3.485,7.745-7.745V54.666C84.882,50.406,81.397,46.921,77.137,46.921z"/><path fill="#1f212b" d="M77.138,82.921h-4.256c-0.553,0-1-0.447-1-1v-3.824c0-0.094-0.082-0.176-0.176-0.176H28.882v4c0,0.553-0.447,1-1,1h-5.256c-4.821,0-8.744-3.923-8.744-8.744V54.665c0-4.821,3.923-8.744,8.744-8.744h4.256c0.553,0,1,0.447,1,1v3h44v-3c0-0.553,0.447-1,1-1h4.256c4.821,0,8.744,3.923,8.744,8.744v19.512C85.882,78.998,81.959,82.921,77.138,82.921z M73.882,80.921h3.256c3.719,0,6.744-3.025,6.744-6.744V54.665c0-3.719-3.025-6.744-6.744-6.744h-3.256v2.944c0,0.553-0.503,1.056-1.056,1.056H27.257c-0.758,0-1.375-0.617-1.375-1.376v-2.624h-3.256c-3.719,0-6.744,3.025-6.744,6.744v19.512c0,3.719,3.025,6.744,6.744,6.744h4.256v-3.195c0-0.995,0.81-1.805,1.805-1.805h43.02c1.2,0,2.176,0.976,2.176,2.176V80.921z"/><path fill="#fef6aa" d="M56.382,16.421v7.324c0,3.122,2.554,5.676,5.676,5.676h8.324"/><path fill="#1f212b" d="M70.382 29.921h-8.323c-3.406 0-6.177-2.771-6.177-6.177v-7.323c0-.276.224-.5.5-.5s.5.224.5.5v7.323c0 2.854 2.322 5.177 5.177 5.177h8.323c.276 0 .5.224.5.5S70.658 29.921 70.382 29.921zM49.382 41.921h-13c-.276 0-.5-.224-.5-.5s.224-.5.5-.5h13c.276 0 .5.224.5.5S49.658 41.921 49.382 41.921zM44.382 45.921h-8c-.276 0-.5-.224-.5-.5s.224-.5.5-.5h8c.276 0 .5.224.5.5S44.658 45.921 44.382 45.921zM62.382 45.921h-16c-.276 0-.5-.224-.5-.5s.224-.5.5-.5h16c.276 0 .5.224.5.5S62.658 45.921 62.382 45.921zM49.382 37.921h-13c-.276 0-.5-.224-.5-.5s.224-.5.5-.5h13c.276 0 .5.224.5.5S49.658 37.921 49.382 37.921zM62.382 42.921h-7c-.276 0-.5-.224-.5-.5s.224-.5.5-.5h6.5v-9h-9v8.5c0 .276-.224.5-.5.5s-.5-.224-.5-.5v-9c0-.276.224-.5.5-.5h10c.276 0 .5.224.5.5v10C62.882 42.698 62.658 42.921 62.382 42.921zM49.382 32.921h-13c-.276 0-.5-.224-.5-.5s.224-.5.5-.5h13c.276 0 .5.224.5.5S49.658 32.921 49.382 32.921z"/><path fill="#fefdef" d="M30.382,77.421v7.658c0,1.288,1.109,2.342,2.465,2.342h35.07c1.356,0,2.465-1.054,2.465-2.342v-7.658H30.382z"/><path fill="#1f212b" d="M67.917,87.921h-35.07c-1.635,0-2.965-1.274-2.965-2.842v-7.658c0-0.276,0.224-0.5,0.5-0.5h40c0.276,0,0.5,0.224,0.5,0.5v7.658C70.882,86.647,69.552,87.921,67.917,87.921z M30.882,77.921v7.158c0,1.016,0.882,1.842,1.965,1.842h35.07c1.083,0,1.965-0.826,1.965-1.842v-7.158H30.882z"/><path fill="#fff" d="M23.463,56.421h-4.162c-0.505,0-0.919-0.413-0.919-0.919V55.34c0-0.505,0.413-0.919,0.919-0.919h4.162c0.505,0,0.919,0.413,0.919,0.919v0.162C24.382,56.008,23.968,56.421,23.463,56.421z"/><path fill="#1f212b" d="M23.463,56.921h-4.162c-0.782,0-1.419-0.637-1.419-1.419V55.34c0-0.782,0.637-1.419,1.419-1.419h4.162c0.782,0,1.419,0.637,1.419,1.419v0.162C24.882,56.285,24.245,56.921,23.463,56.921z M19.301,54.921c-0.231,0-0.419,0.188-0.419,0.419v0.162c0,0.231,0.188,0.419,0.419,0.419h4.162c0.231,0,0.419-0.188,0.419-0.419V55.34c0-0.231-0.188-0.419-0.419-0.419H19.301z"/><path fill="#ef5390" d="M78.382 53.421A2 2 0 1 0 78.382 57.421A2 2 0 1 0 78.382 53.421Z"/><path fill="#1f212b" d="M78.382,57.921c-1.379,0-2.5-1.121-2.5-2.5s1.121-2.5,2.5-2.5s2.5,1.121,2.5,2.5S79.761,57.921,78.382,57.921z M78.382,53.921c-0.827,0-1.5,0.673-1.5,1.5s0.673,1.5,1.5,1.5s1.5-0.673,1.5-1.5S79.209,53.921,78.382,53.921z"/></svg>