<?xml version="1.0" encoding="UTF-8"?><svg xmlns="http://www.w3.org/2000/svg" viewBox="0 0 432.99 415.83"><g id="a"/><g id="b"><g id="c"><g><g><path d="M37.11,218.53h8.37v90.07h-8.37c-12.71,0-23.03-10.32-23.03-23.03v-44c0-12.71,10.32-23.03,23.03-23.03Z" transform="translate(-107.06 36.34) rotate(-24.61)" fill="#ff9802"/><path d="M45.64,307.79c-10.35,0-20.26-5.91-24.84-15.92L2.48,251.87c-6.26-13.67-.23-29.9,13.44-36.16l7.61-3.48c2.13-.97,4.65-.04,5.63,2.09l37.51,81.88c.98,2.13,.04,4.65-2.09,5.63l-7.61,3.49c-3.67,1.68-7.52,2.48-11.32,2.48Zm-22.44-86.08l-3.75,1.72c-9.42,4.31-13.57,15.49-9.26,24.91l18.32,40c4.31,9.42,15.49,13.57,24.91,9.26l3.75-1.72L23.2,221.72Z"/></g><g><polygon points="325.94 85.18 273.3 93.01 317.98 190.55 358.29 155.81 325.94 85.18" fill="#f44336"/><path d="M317.98,194.8c-.3,0-.6-.03-.91-.1-1.3-.29-2.4-1.17-2.95-2.38l-44.68-97.54c-.56-1.21-.51-2.62,.13-3.79,.64-1.17,1.79-1.98,3.11-2.18l52.64-7.83c1.86-.27,3.7,.71,4.48,2.43l32.35,70.63c.79,1.72,.34,3.75-1.09,4.98l-40.31,34.74c-.78,.67-1.76,1.03-2.77,1.03Zm-38.47-98.42l39.98,87.27,33.61-28.97-29.7-64.83-43.89,6.53Z"/></g><g><polygon points="350.47 255.69 153.19 272.8 103.39 164.08 245.2 25.86 350.47 255.69" fill="#eceff1"/><path d="M153.19,277.04c-1.65,0-3.16-.96-3.86-2.48l-49.8-108.71c-.75-1.63-.39-3.56,.9-4.81L242.23,22.82c.99-.96,2.38-1.39,3.74-1.13,1.36,.25,2.51,1.15,3.08,2.41l105.28,229.83c.57,1.25,.5,2.71-.19,3.9-.7,1.19-1.93,1.97-3.3,2.09l-197.28,17.11c-.12,.01-.25,.02-.37,.02Zm-44.69-112.01l47.31,103.28,188.3-16.33L243.84,33.11,108.5,165.03Z"/></g><path d="M146.52,150c-1.1,0-2.21-.43-3.04-1.28-1.64-1.68-1.6-4.37,.08-6l31.78-30.98c1.68-1.64,4.36-1.6,6,.08,1.64,1.68,1.6,4.37-.08,6l-31.78,30.98c-.83,.8-1.9,1.21-2.96,1.21Z" fill="#fff"/><path d="M191.44,106.22c-1.1,0-2.2-.43-3.03-1.27-1.64-1.67-1.62-4.36,.06-6l.14-.14c1.67-1.64,4.36-1.62,6,.06,1.64,1.67,1.62,4.36-.06,6l-.14,.14c-.83,.81-1.9,1.21-2.97,1.21Z" fill="#fff"/><g><rect x="296.78" y="-7.76" width="23.15" height="287.43" rx="11.57" ry="11.57" transform="translate(-28.61 140.77) rotate(-24.61)" fill="#f44336"/><path d="M363.41,271.91c-6,0-11.75-3.43-14.4-9.23L238.94,22.4c-3.63-7.93-.14-17.34,7.79-20.97,7.93-3.63,17.34-.14,20.97,7.79l110.07,240.28c1.76,3.84,1.92,8.14,.45,12.1-1.47,3.96-4.4,7.11-8.24,8.87h0c-2.13,.98-4.36,1.44-6.56,1.44ZM253.31,8.49c-1.02,0-2.05,.21-3.04,.67-1.78,.82-3.14,2.27-3.82,4.11s-.61,3.83,.21,5.61l110.07,240.28c.82,1.78,2.27,3.13,4.11,3.82,1.83,.68,3.82,.61,5.6-.21h0c1.78-.82,3.14-2.28,3.82-4.11s.61-3.83-.21-5.61L259.99,12.76c-1.23-2.69-3.89-4.28-6.67-4.28Z"/></g><g><path d="M137.85,400.56l-45.88-100.16,34.35-15.73,45.88,100.16c4.34,9.48,.18,20.7-9.31,25.04h0c-9.48,4.34-20.7,.18-25.04-9.31Z" fill="#607d8b"/><path d="M155.06,415.83c-8.78,0-17.18-5.01-21.07-13.5h0l-45.88-100.16c-.47-1.02-.51-2.19-.12-3.25,.39-1.06,1.19-1.91,2.21-2.38l34.35-15.73c2.13-.97,4.65-.04,5.63,2.09l45.88,100.16c2.57,5.62,2.81,11.9,.65,17.69-2.15,5.79-6.43,10.4-12.05,12.97-3.11,1.43-6.38,2.1-9.6,2.1Zm-13.35-17.04c3.36,7.34,12.07,10.58,19.41,7.22,3.56-1.63,6.27-4.55,7.63-8.21,1.36-3.67,1.22-7.64-.41-11.2l-44.12-96.3-26.63,12.2,44.12,96.3Z"/></g><g><rect x="39.84" y="177.94" width="92.67" height="119.58" transform="translate(-91.18 57.48) rotate(-24.61)" fill="#ffc108"/><path d="M68.95,315.63c-.5,0-1-.09-1.48-.27-1.06-.39-1.91-1.19-2.38-2.21L15.29,204.44c-.47-1.02-.51-2.19-.12-3.25,.39-1.06,1.19-1.91,2.21-2.38l84.25-38.59c2.13-.97,4.65-.04,5.63,2.09l49.8,108.71c.98,2.13,.04,4.65-2.09,5.63l-84.25,38.59c-.56,.26-1.16,.39-1.77,.39ZM24.77,204.76l46.27,101,76.53-35.06-46.27-101L24.77,204.76Z"/></g><path d="M48.32,229.82c-1.61,0-3.15-.92-3.86-2.48l-6.66-14.54c-.47-1.02-.51-2.19-.12-3.25,.39-1.06,1.19-1.91,2.21-2.38l21.62-9.9c2.13-.97,4.65-.04,5.63,2.09,.98,2.13,.04,4.65-2.09,5.63l-17.76,8.13,4.89,10.68c.98,2.13,.04,4.65-2.09,5.63-.57,.26-1.17,.39-1.77,.39Z" fill="#fff"/><path d="M78.36,198.47c-1.61,0-3.15-.92-3.86-2.48-.98-2.13-.04-4.65,2.09-5.63l.3-.14c2.13-.98,4.65-.04,5.63,2.09,.98,2.13,.04,4.65-2.09,5.63l-.3,.14c-.57,.26-1.17,.39-1.77,.39Z" fill="#fff"/><path d="M383.34,104.56c-1.59,0-3.11-.89-3.84-2.42-1.01-2.12-.11-4.65,2.01-5.66l32.56-15.51c2.12-1.01,4.65-.11,5.66,2.01,1.01,2.12,.11,4.65-2.01,5.66l-32.56,15.51c-.59,.28-1.21,.41-1.82,.41Z"/><g><path d="M392.68,132.84c-2.33,0-4.23-1.89-4.24-4.22-.01-2.34,1.88-4.26,4.22-4.27l36.06-.18h.02c2.33,0,4.23,1.89,4.24,4.22,.01,2.34-1.88,4.26-4.22,4.27l-36.06,.18h-.02Z"/><path d="M367.26,79.48c-.95,0-1.9-.32-2.69-.96-1.81-1.49-2.08-4.16-.59-5.97l22.87-27.89c1.49-1.81,4.16-2.08,5.97-.59,1.81,1.49,2.08,4.16,.59,5.97l-22.87,27.89c-.84,1.02-2.06,1.55-3.29,1.55Z"/></g><g opacity=".2"><path d="M138.53,180.16c1.17,4.34,2.37,8.65,4.07,12.82,2.86,7,5.86,12.63,10.82,18.43,4.75,5.56,11.01,9.17,17.7,11.82,6.72,2.66,13.98,2.57,20.97,1.21,5.89-1.15,11.43-4.16,16.69-6.98,4.06-2.18,8.13-4.37,12.16-6.61,8.04-4.48,15.97-9.21,23.45-14.59,9.32-6.7,19.18-13.96,24.53-24.46,5.87-11.52,7.51-23.93,4.89-36.59-2.1-10.18-8.48-20.42-16.61-26.88-5.61-4.45-10.65-7.43-17.43-9.94-1.68-.62-3.41-1.08-5.18-1.4-3.9-.7-8.05-1.36-12.04-1.09-7.5,.5-14.54,2.52-20.94,6.55-3.89,2.45-7.59,5.28-11.25,8.07-8.49,6.46-16.78,13.14-24.62,20.38s-15.32,14.57-21.61,23.01c-9.47,12.68-8.64,31.61,3.84,42.09,9.8,8.22,22.48,11.62,35.16,11.53,11.53-.08,23.12-3.13,33.15-8.81,9.54-5.39,17.44-13.39,23.36-22.54,3.01-4.65,5.25-9.92,7.06-15.13,.62-1.78,1.12-3.6,1.51-5.44,.74-3.49,1.53-7.22,1.37-10.79-.51-11.77-7.38-22.28-19.02-25.66-7.35-2.13-14.88-.81-21.76,2.09-9.18,3.87-17.81,9.34-26.26,14.58-4.08,2.53-8.13,5.13-12.12,7.8-2.58,1.72-5.07,3.72-7.77,5.23-3.74,2.08-7.57,4-11.36,6l-3.16,1.67c-4.53,2.39-8.29,7.66-9.62,12.51-1.38,5.01-.76,11.69,2.11,16.13,6.36,9.87,18.27,12.99,28.65,7.51,5.34-2.82,11.19-5.27,16.15-8.71,6.81-4.73,13.77-9.26,20.86-13.58s13.82-8.72,21.16-11.92l-5,2.11c1.37-.55,2.74-.98,4.19-1.24l-5.57,.75c.98-.13,1.9-.16,2.88-.04l-5.57-.75c.55,.11,1.03,.24,1.55,.45l-5-2.11c.33,.15,.63,.32,.92,.53l-4.24-3.27c.46,.38,.8,.73,1.17,1.2l-3.27-4.24c.26,.37,.47,.77,.63,1.2l-2.11-5c.16,.43,.27,.86,.34,1.31l-.75-5.57c.13,1.18,.09,2.31-.04,3.49l.75-5.57c-.55,3.74-1.58,7.35-3,10.85l2.11-5c-1.67,3.92-3.8,7.56-6.4,10.94l3.27-4.24c-2.35,2.96-5,5.62-7.97,7.97l4.24-3.27c-3.15,2.42-6.55,4.39-10.21,5.95l5-2.11c-3.78,1.54-7.69,2.6-11.73,3.18l5.57-.75c-4.05,.52-8.09,.55-12.15,.07l5.57,.75c-3.34-.45-6.64-1.17-9.77-2.45l5,2.11c-1.61-.7-3.1-1.54-4.51-2.59l4.24,3.27c-.82-.67-1.55-1.37-2.23-2.18l3.27,4.24c-.49-.66-.91-1.33-1.28-2.07l2.11,5c-.32-.78-.55-1.54-.7-2.37l.75,5.57c-.11-.99-.09-1.9,.03-2.88l-.75,5.57c.19-.96,.47-1.85,.84-2.76l-2.11,5c.75-1.62,1.69-3.05,2.77-4.47l-3.27,4.24c5.26-6.56,11.57-12.48,17.73-18.2,6.3-5.85,12.87-11.4,19.67-16.66l-4.24,3.27c5.22-4.01,10.58-8.56,16.63-11.26l-5,2.11c1.79-.72,3.57-1.18,5.48-1.44l-5.57,.75c2.23-.21,4.42-.14,6.64,.15l-5.57-.75c2.45,.39,4.79,1.06,7.09,2.01l-5-2.11c2.48,1.08,4.78,2.43,6.94,4.06l-4.24-3.27c2.13,1.68,4.02,3.56,5.69,5.68l-3.27-4.24c1.49,1.98,2.74,4.07,3.76,6.34l-2.11-5c1.09,2.59,1.8,5.25,2.17,8.04l-.75-5.57c.29,2.57,.28,5.12-.02,7.69l.75-5.57c-.38,2.8-1.09,5.49-2.14,8.12l2.11-5c-1.01,2.38-2.27,4.59-3.81,6.67l3.27-4.24c-2.8,3.59-6.31,6.47-9.87,9.25l4.24-3.27c-7.19,5.54-14.85,10.41-22.7,14.95s-15.55,9.16-23.7,12.73l5-2.11c-1.96,.81-3.92,1.43-6.02,1.76l5.57-.75c-1.48,.17-2.9,.18-4.37,0l5.57,.75c-1.64-.26-3.16-.7-4.69-1.34l5,2.11c-1.74-.8-3.33-1.77-4.85-2.94l4.24,3.27c-1.68-1.37-3.17-2.9-4.51-4.61l3.27,4.24c-1.86-2.5-3.31-5.22-4.53-8.08l2.11,5c-1.7-4.16-2.9-8.48-4.07-12.82-1.36-5.07-5.1-9.87-9.62-12.51s-11.1-3.74-16.13-2.11c-10.85,3.51-17.67,14.42-14.62,25.76Z" fill="#fff"/></g><g opacity=".3"><path d="M176.09,191.21c-.58,0-1.15-.02-1.73-.07-4.47-.36-8.67-2.17-11.83-5.08-2.44-2.25-3.78-4.66-4.58-6.28-2.42-4.9-3.02-9.75-1.77-14.41,1.88-7.02,7.91-12.39,15.23-13.7,1.68-.67,3.5-1.03,5.36-1.05h.21c1.66-.09,5.55-.27,9.74,1.78,2.98,1.46,5.55,3.81,7.42,6.78,4.31,6.89,4.18,15.73-.32,22.54-3.94,5.96-10.61,9.49-17.72,9.49Zm-7.25-16.42c.03,.06,.07,.11,.1,.16,1.08,1.72,2.74,3.18,4.7,4.14,1.23,.6,2.38,.91,3.27,1.05v-7.06l-.08,.05-2.47-1.36-5.51,3.01Z" fill="#fff"/></g></g></g></g></svg>